<svg width="321" height="1559" viewBox="0 0 321 1559" fill="none" xmlns="http://www.w3.org/2000/svg">
<path d="M125.704 0.460938C131.619 24.0552 150.653 84.7814 192.738 100.288C245.302 119.654 317.233 90.605 319.539 168.069C321.844 245.533 138.789 230.778 76.0805 294.87C13.3716 358.962 60.4033 428.127 60.4033 428.127C60.4033 428.127 89.9134 478.847 154.928 490.375C219.942 501.902 279.423 495.908 310.317 566.455C341.21 637.003 254.524 696.945 254.524 696.945C254.524 696.945 208.876 723.689 170.144 725.072C131.412 726.455 26.2823 754.121 4.1497 854.64C-17.9829 955.158 71.4696 985.13 71.4696 985.13C71.4696 985.13 124.957 998.962 166.916 998.04C208.876 997.118 297.867 1008.18 305.706 1064.44C313.545 1120.69 290.029 1154.81 262.363 1178.33C234.697 1201.84 177.983 1224.9 163.228 1230.89C148.472 1236.89 68.703 1252.56 50.2592 1334.18C31.8154 1415.79 120.346 1458.67 137.867 1463.75C154.628 1468.6 222.446 1510.58 226.683 1557.81" stroke="white" stroke-opacity="0.69" stroke-dasharray="14 14"/>
</svg>
